<?xml version="1.0" standalone="no"?><!DOCTYPE svg PUBLIC "-//W3C//DTD SVG 1.1//EN" "http://www.w3.org/Graphics/SVG/1.1/DTD/svg11.dtd"><svg t="1734189341603" class="icon" viewBox="0 0 1092 1024" version="1.1" xmlns="http://www.w3.org/2000/svg" p-id="22644" xmlns:xlink="http://www.w3.org/1999/xlink" width="213.28125" height="200"><path d="M4.3008 430.421333l136.669867-236.7488a32.221867 32.221867 0 0 1 27.989333-16.110933h50.176L312.661333 16.110933A32.290133 32.290133 0 0 1 340.514133 0h274.090667c11.537067 0 22.186667 6.144 27.989333 16.042667l24.9856 43.144533h186.914134c11.4688 0 22.1184 6.144 27.8528 16.110933l137.079466 236.7488a32.085333 32.085333 0 0 1 0 32.085334l-24.9856 43.2128 93.525334 161.450666a32.085333 32.085333 0 0 1 0 32.1536l-137.079467 236.7488a32.290133 32.290133 0 0 1-27.989333 16.042667h-49.834667l-93.525333 161.518933a32.290133 32.290133 0 0 1-27.8528 16.110934H477.5936a32.221867 32.221867 0 0 1-27.921067-16.110934l-24.917333-43.144533H237.7728a32.3584 32.3584 0 0 1-27.989333-16.042667l-136.942934-236.7488a32.085333 32.085333 0 0 1 0-32.1536l24.917334-43.144533L4.3008 462.574933a32.1536 32.1536 0 0 1 0-32.085333z m236.612267 129.092267h261.666133L404.411733 390.007467a5.393067 5.393067 0 0 1 0-5.393067L605.252267 37.546667H343.586133L141.175467 387.345067l99.669333 172.168533h0.068267zM166.161067 451.925333H41.506133l93.525334 161.450667 62.2592-107.656533-31.1296-53.8624v0.068266z m249.173333-64.512l96.529067 166.775467 28.0576-48.469333-32.768-56.456534v-0.2048a5.3248 5.3248 0 0 1-0.4096-0.955733l-0.068267-0.273067a5.3248 5.3248 0 0 1 0-2.525866l0.068267-0.341334a5.7344 5.7344 0 0 1 0.341333-0.887466l0.136533-0.2048 137.0112-236.7488a5.393067 5.393067 0 0 1 4.642134-2.730667h59.255466L614.673067 42.939733l-199.338667 344.4736z m305.152-182.954666h62.395733l62.2592-107.656534H658.090667l62.395733 107.656534z m74.752 0h59.1872c1.911467 0 3.754667 1.024 4.7104 2.730666l98.0992 169.437867 28.0576-48.469333-130.798933-226.030934-59.255467 102.331734z m56.1152 10.717866h-199.338667L521.147733 441.207467h196.266667c1.911467 0 3.6864 1.024 4.642133 2.730666l200.977067 346.999467 130.798933-226.030933L851.285333 215.04zM714.3424 451.925333h-193.194667l28.0576 48.469334h65.536c1.365333 0 2.594133 0.477867 3.4816 1.365333l0.273067 0.273067 0.8192 1.024 137.0112 236.7488a5.3248 5.3248 0 0 1 0 5.3248l-29.627733 51.2h186.9824l-199.338667-344.405334z m6.144 355.1232l-31.1296 53.794134 62.327467 107.656533 93.457066-161.450667h-124.586666z m-37.2736 64.512l-29.627733 51.2a5.461333 5.461333 0 0 1-4.7104 2.6624H452.608l28.125867 48.469334h261.666133l-59.323733-102.4 0.136533 0.068266z m-37.410133 43.144534l99.669333-172.2368-130.8672-226.030934-98.0992 169.506134a5.393067 5.393067 0 0 1-4.642133 2.730666H110.045867l130.798933 226.030934H645.802667zM508.791467 677.956267l96.4608-166.912h-56.1152l-32.631467 56.456533-0.2048 0.273067a4.983467 4.983467 0 0 1-1.570133 1.570133l-0.273067 0.136533v0.068267a4.983467 4.983467 0 0 1-1.2288 0.477867h-0.136533a5.3248 5.3248 0 0 1-1.092267 0.2048H237.704533a5.393067 5.393067 0 0 1-4.642133-2.6624l-29.559467-51.2-93.525333 161.518933h398.813867z m-348.842667-236.7488l-29.559467-51.2a5.393067 5.393067 0 0 1 0-5.3248L228.420267 215.04H172.032L41.506133 441.1392H159.9488z" p-id="22645"></path><path d="M241.4592 566.340267h262.280533L405.504 395.537067a5.256533 5.256533 0 0 1 0-5.461334L606.8224 40.5504H344.4736L141.585067 392.8064l99.874133 173.533867z" p-id="22646"></path><path d="M851.968 222.6176H655.018667L525.9264 444.962133h193.672533a5.461333 5.461333 0 0 1 4.573867 2.730667l198.4512 341.1968 129.160533-222.344533-199.8848-344.064v0.136533z" p-id="22647"></path><path d="M650.0352 910.1312l98.372267-174.8992-129.160534-229.5808L522.513067 677.888a5.9392 5.9392 0 0 1-1.979734 1.979733 5.666133 5.666133 0 0 1-2.730666 0.682667H121.4464l129.092267 229.649067h399.5648v-0.068267z" p-id="22648"></path></svg>